%TF.GenerationSoftware,KiCad,Pcbnew,9.0.7*%
%TF.CreationDate,2026-07-15T16:01:31+01:00*%
%TF.ProjectId,radioi,72616469-6f69-42e6-9b69-6361645f7063,rev?*%
%TF.SameCoordinates,Original*%
%TF.FileFunction,Legend,Top*%
%TF.FilePolarity,Positive*%
%FSLAX46Y46*%
G04 Gerber Fmt 4.6, Leading zero omitted, Abs format (unit mm)*
G04 Created by KiCad (PCBNEW 9.0.7) date 2026-07-15 16:01:31*
%MOMM*%
%LPD*%
G01*
G04 APERTURE LIST*
%ADD10C,0.150000*%
%ADD11C,0.100000*%
%ADD12C,0.152400*%
%ADD13C,0.120000*%
%ADD14C,0.127000*%
%ADD15C,0.200000*%
G04 APERTURE END LIST*
D10*
X126612154Y-110706000D02*
X126612154Y-111516358D01*
X126612154Y-111516358D02*
X126659822Y-111611694D01*
X126659822Y-111611694D02*
X126707491Y-111659363D01*
X126707491Y-111659363D02*
X126802827Y-111707031D01*
X126802827Y-111707031D02*
X126993499Y-111707031D01*
X126993499Y-111707031D02*
X127088836Y-111659363D01*
X127088836Y-111659363D02*
X127136504Y-111611694D01*
X127136504Y-111611694D02*
X127184172Y-111516358D01*
X127184172Y-111516358D02*
X127184172Y-110706000D01*
X127565517Y-110706000D02*
X128185203Y-110706000D01*
X128185203Y-110706000D02*
X127851526Y-111087345D01*
X127851526Y-111087345D02*
X127994530Y-111087345D01*
X127994530Y-111087345D02*
X128089867Y-111135013D01*
X128089867Y-111135013D02*
X128137535Y-111182681D01*
X128137535Y-111182681D02*
X128185203Y-111278017D01*
X128185203Y-111278017D02*
X128185203Y-111516358D01*
X128185203Y-111516358D02*
X128137535Y-111611694D01*
X128137535Y-111611694D02*
X128089867Y-111659363D01*
X128089867Y-111659363D02*
X127994530Y-111707031D01*
X127994530Y-111707031D02*
X127708521Y-111707031D01*
X127708521Y-111707031D02*
X127613185Y-111659363D01*
X127613185Y-111659363D02*
X127565517Y-111611694D01*
D11*
X102508095Y-66064419D02*
X102508095Y-66873942D01*
X102508095Y-66873942D02*
X102555714Y-66969180D01*
X102555714Y-66969180D02*
X102603333Y-67016800D01*
X102603333Y-67016800D02*
X102698571Y-67064419D01*
X102698571Y-67064419D02*
X102889047Y-67064419D01*
X102889047Y-67064419D02*
X102984285Y-67016800D01*
X102984285Y-67016800D02*
X103031904Y-66969180D01*
X103031904Y-66969180D02*
X103079523Y-66873942D01*
X103079523Y-66873942D02*
X103079523Y-66064419D01*
X103508095Y-66159657D02*
X103555714Y-66112038D01*
X103555714Y-66112038D02*
X103650952Y-66064419D01*
X103650952Y-66064419D02*
X103889047Y-66064419D01*
X103889047Y-66064419D02*
X103984285Y-66112038D01*
X103984285Y-66112038D02*
X104031904Y-66159657D01*
X104031904Y-66159657D02*
X104079523Y-66254895D01*
X104079523Y-66254895D02*
X104079523Y-66350133D01*
X104079523Y-66350133D02*
X104031904Y-66492990D01*
X104031904Y-66492990D02*
X103460476Y-67064419D01*
X103460476Y-67064419D02*
X104079523Y-67064419D01*
X103745312Y-60569419D02*
X103411979Y-60093228D01*
X103173884Y-60569419D02*
X103173884Y-59569419D01*
X103173884Y-59569419D02*
X103554836Y-59569419D01*
X103554836Y-59569419D02*
X103650074Y-59617038D01*
X103650074Y-59617038D02*
X103697693Y-59664657D01*
X103697693Y-59664657D02*
X103745312Y-59759895D01*
X103745312Y-59759895D02*
X103745312Y-59902752D01*
X103745312Y-59902752D02*
X103697693Y-59997990D01*
X103697693Y-59997990D02*
X103650074Y-60045609D01*
X103650074Y-60045609D02*
X103554836Y-60093228D01*
X103554836Y-60093228D02*
X103173884Y-60093228D01*
X104364360Y-59569419D02*
X104554836Y-59569419D01*
X104554836Y-59569419D02*
X104650074Y-59617038D01*
X104650074Y-59617038D02*
X104745312Y-59712276D01*
X104745312Y-59712276D02*
X104792931Y-59902752D01*
X104792931Y-59902752D02*
X104792931Y-60236085D01*
X104792931Y-60236085D02*
X104745312Y-60426561D01*
X104745312Y-60426561D02*
X104650074Y-60521800D01*
X104650074Y-60521800D02*
X104554836Y-60569419D01*
X104554836Y-60569419D02*
X104364360Y-60569419D01*
X104364360Y-60569419D02*
X104269122Y-60521800D01*
X104269122Y-60521800D02*
X104173884Y-60426561D01*
X104173884Y-60426561D02*
X104126265Y-60236085D01*
X104126265Y-60236085D02*
X104126265Y-59902752D01*
X104126265Y-59902752D02*
X104173884Y-59712276D01*
X104173884Y-59712276D02*
X104269122Y-59617038D01*
X104269122Y-59617038D02*
X104364360Y-59569419D01*
X105221503Y-59569419D02*
X105221503Y-60378942D01*
X105221503Y-60378942D02*
X105269122Y-60474180D01*
X105269122Y-60474180D02*
X105316741Y-60521800D01*
X105316741Y-60521800D02*
X105411979Y-60569419D01*
X105411979Y-60569419D02*
X105602455Y-60569419D01*
X105602455Y-60569419D02*
X105697693Y-60521800D01*
X105697693Y-60521800D02*
X105745312Y-60474180D01*
X105745312Y-60474180D02*
X105792931Y-60378942D01*
X105792931Y-60378942D02*
X105792931Y-59569419D01*
X106126265Y-59569419D02*
X106697693Y-59569419D01*
X106411979Y-60569419D02*
X106411979Y-59569419D01*
X98826265Y-56531800D02*
X98969122Y-56579419D01*
X98969122Y-56579419D02*
X99207217Y-56579419D01*
X99207217Y-56579419D02*
X99302455Y-56531800D01*
X99302455Y-56531800D02*
X99350074Y-56484180D01*
X99350074Y-56484180D02*
X99397693Y-56388942D01*
X99397693Y-56388942D02*
X99397693Y-56293704D01*
X99397693Y-56293704D02*
X99350074Y-56198466D01*
X99350074Y-56198466D02*
X99302455Y-56150847D01*
X99302455Y-56150847D02*
X99207217Y-56103228D01*
X99207217Y-56103228D02*
X99016741Y-56055609D01*
X99016741Y-56055609D02*
X98921503Y-56007990D01*
X98921503Y-56007990D02*
X98873884Y-55960371D01*
X98873884Y-55960371D02*
X98826265Y-55865133D01*
X98826265Y-55865133D02*
X98826265Y-55769895D01*
X98826265Y-55769895D02*
X98873884Y-55674657D01*
X98873884Y-55674657D02*
X98921503Y-55627038D01*
X98921503Y-55627038D02*
X99016741Y-55579419D01*
X99016741Y-55579419D02*
X99254836Y-55579419D01*
X99254836Y-55579419D02*
X99397693Y-55627038D01*
X99826265Y-56579419D02*
X99826265Y-55579419D01*
X99826265Y-55579419D02*
X100064360Y-55579419D01*
X100064360Y-55579419D02*
X100207217Y-55627038D01*
X100207217Y-55627038D02*
X100302455Y-55722276D01*
X100302455Y-55722276D02*
X100350074Y-55817514D01*
X100350074Y-55817514D02*
X100397693Y-56007990D01*
X100397693Y-56007990D02*
X100397693Y-56150847D01*
X100397693Y-56150847D02*
X100350074Y-56341323D01*
X100350074Y-56341323D02*
X100302455Y-56436561D01*
X100302455Y-56436561D02*
X100207217Y-56531800D01*
X100207217Y-56531800D02*
X100064360Y-56579419D01*
X100064360Y-56579419D02*
X99826265Y-56579419D01*
X100778646Y-56293704D02*
X101254836Y-56293704D01*
X100683408Y-56579419D02*
X101016741Y-55579419D01*
X101016741Y-55579419D02*
X101350074Y-56579419D01*
X104697693Y-63727038D02*
X104602455Y-63679419D01*
X104602455Y-63679419D02*
X104459598Y-63679419D01*
X104459598Y-63679419D02*
X104316741Y-63727038D01*
X104316741Y-63727038D02*
X104221503Y-63822276D01*
X104221503Y-63822276D02*
X104173884Y-63917514D01*
X104173884Y-63917514D02*
X104126265Y-64107990D01*
X104126265Y-64107990D02*
X104126265Y-64250847D01*
X104126265Y-64250847D02*
X104173884Y-64441323D01*
X104173884Y-64441323D02*
X104221503Y-64536561D01*
X104221503Y-64536561D02*
X104316741Y-64631800D01*
X104316741Y-64631800D02*
X104459598Y-64679419D01*
X104459598Y-64679419D02*
X104554836Y-64679419D01*
X104554836Y-64679419D02*
X104697693Y-64631800D01*
X104697693Y-64631800D02*
X104745312Y-64584180D01*
X104745312Y-64584180D02*
X104745312Y-64250847D01*
X104745312Y-64250847D02*
X104554836Y-64250847D01*
X105173884Y-64679419D02*
X105173884Y-63679419D01*
X105173884Y-63679419D02*
X105745312Y-64679419D01*
X105745312Y-64679419D02*
X105745312Y-63679419D01*
X106221503Y-64679419D02*
X106221503Y-63679419D01*
X106221503Y-63679419D02*
X106459598Y-63679419D01*
X106459598Y-63679419D02*
X106602455Y-63727038D01*
X106602455Y-63727038D02*
X106697693Y-63822276D01*
X106697693Y-63822276D02*
X106745312Y-63917514D01*
X106745312Y-63917514D02*
X106792931Y-64107990D01*
X106792931Y-64107990D02*
X106792931Y-64250847D01*
X106792931Y-64250847D02*
X106745312Y-64441323D01*
X106745312Y-64441323D02*
X106697693Y-64536561D01*
X106697693Y-64536561D02*
X106602455Y-64631800D01*
X106602455Y-64631800D02*
X106459598Y-64679419D01*
X106459598Y-64679419D02*
X106221503Y-64679419D01*
X98831027Y-63679419D02*
X99164360Y-64679419D01*
X99164360Y-64679419D02*
X99497693Y-63679419D01*
X100402455Y-64584180D02*
X100354836Y-64631800D01*
X100354836Y-64631800D02*
X100211979Y-64679419D01*
X100211979Y-64679419D02*
X100116741Y-64679419D01*
X100116741Y-64679419D02*
X99973884Y-64631800D01*
X99973884Y-64631800D02*
X99878646Y-64536561D01*
X99878646Y-64536561D02*
X99831027Y-64441323D01*
X99831027Y-64441323D02*
X99783408Y-64250847D01*
X99783408Y-64250847D02*
X99783408Y-64107990D01*
X99783408Y-64107990D02*
X99831027Y-63917514D01*
X99831027Y-63917514D02*
X99878646Y-63822276D01*
X99878646Y-63822276D02*
X99973884Y-63727038D01*
X99973884Y-63727038D02*
X100116741Y-63679419D01*
X100116741Y-63679419D02*
X100211979Y-63679419D01*
X100211979Y-63679419D02*
X100354836Y-63727038D01*
X100354836Y-63727038D02*
X100402455Y-63774657D01*
X101402455Y-64584180D02*
X101354836Y-64631800D01*
X101354836Y-64631800D02*
X101211979Y-64679419D01*
X101211979Y-64679419D02*
X101116741Y-64679419D01*
X101116741Y-64679419D02*
X100973884Y-64631800D01*
X100973884Y-64631800D02*
X100878646Y-64536561D01*
X100878646Y-64536561D02*
X100831027Y-64441323D01*
X100831027Y-64441323D02*
X100783408Y-64250847D01*
X100783408Y-64250847D02*
X100783408Y-64107990D01*
X100783408Y-64107990D02*
X100831027Y-63917514D01*
X100831027Y-63917514D02*
X100878646Y-63822276D01*
X100878646Y-63822276D02*
X100973884Y-63727038D01*
X100973884Y-63727038D02*
X101116741Y-63679419D01*
X101116741Y-63679419D02*
X101211979Y-63679419D01*
X101211979Y-63679419D02*
X101354836Y-63727038D01*
X101354836Y-63727038D02*
X101402455Y-63774657D01*
X103550074Y-62579419D02*
X103073884Y-62579419D01*
X103073884Y-62579419D02*
X103073884Y-61579419D01*
X104073884Y-61579419D02*
X104264360Y-61579419D01*
X104264360Y-61579419D02*
X104359598Y-61627038D01*
X104359598Y-61627038D02*
X104454836Y-61722276D01*
X104454836Y-61722276D02*
X104502455Y-61912752D01*
X104502455Y-61912752D02*
X104502455Y-62246085D01*
X104502455Y-62246085D02*
X104454836Y-62436561D01*
X104454836Y-62436561D02*
X104359598Y-62531800D01*
X104359598Y-62531800D02*
X104264360Y-62579419D01*
X104264360Y-62579419D02*
X104073884Y-62579419D01*
X104073884Y-62579419D02*
X103978646Y-62531800D01*
X103978646Y-62531800D02*
X103883408Y-62436561D01*
X103883408Y-62436561D02*
X103835789Y-62246085D01*
X103835789Y-62246085D02*
X103835789Y-61912752D01*
X103835789Y-61912752D02*
X103883408Y-61722276D01*
X103883408Y-61722276D02*
X103978646Y-61627038D01*
X103978646Y-61627038D02*
X104073884Y-61579419D01*
X104931027Y-61579419D02*
X104931027Y-62388942D01*
X104931027Y-62388942D02*
X104978646Y-62484180D01*
X104978646Y-62484180D02*
X105026265Y-62531800D01*
X105026265Y-62531800D02*
X105121503Y-62579419D01*
X105121503Y-62579419D02*
X105311979Y-62579419D01*
X105311979Y-62579419D02*
X105407217Y-62531800D01*
X105407217Y-62531800D02*
X105454836Y-62484180D01*
X105454836Y-62484180D02*
X105502455Y-62388942D01*
X105502455Y-62388942D02*
X105502455Y-61579419D01*
X105835789Y-61579419D02*
X106407217Y-61579419D01*
X106121503Y-62579419D02*
X106121503Y-61579419D01*
X98873884Y-62679419D02*
X98873884Y-61679419D01*
X98873884Y-61679419D02*
X99445312Y-62679419D01*
X99445312Y-62679419D02*
X99445312Y-61679419D01*
X100492931Y-62584180D02*
X100445312Y-62631800D01*
X100445312Y-62631800D02*
X100302455Y-62679419D01*
X100302455Y-62679419D02*
X100207217Y-62679419D01*
X100207217Y-62679419D02*
X100064360Y-62631800D01*
X100064360Y-62631800D02*
X99969122Y-62536561D01*
X99969122Y-62536561D02*
X99921503Y-62441323D01*
X99921503Y-62441323D02*
X99873884Y-62250847D01*
X99873884Y-62250847D02*
X99873884Y-62107990D01*
X99873884Y-62107990D02*
X99921503Y-61917514D01*
X99921503Y-61917514D02*
X99969122Y-61822276D01*
X99969122Y-61822276D02*
X100064360Y-61727038D01*
X100064360Y-61727038D02*
X100207217Y-61679419D01*
X100207217Y-61679419D02*
X100302455Y-61679419D01*
X100302455Y-61679419D02*
X100445312Y-61727038D01*
X100445312Y-61727038D02*
X100492931Y-61774657D01*
X98873884Y-60679419D02*
X98873884Y-59679419D01*
X98873884Y-59679419D02*
X99445312Y-60679419D01*
X99445312Y-60679419D02*
X99445312Y-59679419D01*
X100492931Y-60584180D02*
X100445312Y-60631800D01*
X100445312Y-60631800D02*
X100302455Y-60679419D01*
X100302455Y-60679419D02*
X100207217Y-60679419D01*
X100207217Y-60679419D02*
X100064360Y-60631800D01*
X100064360Y-60631800D02*
X99969122Y-60536561D01*
X99969122Y-60536561D02*
X99921503Y-60441323D01*
X99921503Y-60441323D02*
X99873884Y-60250847D01*
X99873884Y-60250847D02*
X99873884Y-60107990D01*
X99873884Y-60107990D02*
X99921503Y-59917514D01*
X99921503Y-59917514D02*
X99969122Y-59822276D01*
X99969122Y-59822276D02*
X100064360Y-59727038D01*
X100064360Y-59727038D02*
X100207217Y-59679419D01*
X100207217Y-59679419D02*
X100302455Y-59679419D01*
X100302455Y-59679419D02*
X100445312Y-59727038D01*
X100445312Y-59727038D02*
X100492931Y-59774657D01*
X104873884Y-58679419D02*
X104873884Y-57679419D01*
X104873884Y-57679419D02*
X105445312Y-58679419D01*
X105445312Y-58679419D02*
X105445312Y-57679419D01*
X106492931Y-58584180D02*
X106445312Y-58631800D01*
X106445312Y-58631800D02*
X106302455Y-58679419D01*
X106302455Y-58679419D02*
X106207217Y-58679419D01*
X106207217Y-58679419D02*
X106064360Y-58631800D01*
X106064360Y-58631800D02*
X105969122Y-58536561D01*
X105969122Y-58536561D02*
X105921503Y-58441323D01*
X105921503Y-58441323D02*
X105873884Y-58250847D01*
X105873884Y-58250847D02*
X105873884Y-58107990D01*
X105873884Y-58107990D02*
X105921503Y-57917514D01*
X105921503Y-57917514D02*
X105969122Y-57822276D01*
X105969122Y-57822276D02*
X106064360Y-57727038D01*
X106064360Y-57727038D02*
X106207217Y-57679419D01*
X106207217Y-57679419D02*
X106302455Y-57679419D01*
X106302455Y-57679419D02*
X106445312Y-57727038D01*
X106445312Y-57727038D02*
X106492931Y-57774657D01*
X98926265Y-58531800D02*
X99069122Y-58579419D01*
X99069122Y-58579419D02*
X99307217Y-58579419D01*
X99307217Y-58579419D02*
X99402455Y-58531800D01*
X99402455Y-58531800D02*
X99450074Y-58484180D01*
X99450074Y-58484180D02*
X99497693Y-58388942D01*
X99497693Y-58388942D02*
X99497693Y-58293704D01*
X99497693Y-58293704D02*
X99450074Y-58198466D01*
X99450074Y-58198466D02*
X99402455Y-58150847D01*
X99402455Y-58150847D02*
X99307217Y-58103228D01*
X99307217Y-58103228D02*
X99116741Y-58055609D01*
X99116741Y-58055609D02*
X99021503Y-58007990D01*
X99021503Y-58007990D02*
X98973884Y-57960371D01*
X98973884Y-57960371D02*
X98926265Y-57865133D01*
X98926265Y-57865133D02*
X98926265Y-57769895D01*
X98926265Y-57769895D02*
X98973884Y-57674657D01*
X98973884Y-57674657D02*
X99021503Y-57627038D01*
X99021503Y-57627038D02*
X99116741Y-57579419D01*
X99116741Y-57579419D02*
X99354836Y-57579419D01*
X99354836Y-57579419D02*
X99497693Y-57627038D01*
X100497693Y-58484180D02*
X100450074Y-58531800D01*
X100450074Y-58531800D02*
X100307217Y-58579419D01*
X100307217Y-58579419D02*
X100211979Y-58579419D01*
X100211979Y-58579419D02*
X100069122Y-58531800D01*
X100069122Y-58531800D02*
X99973884Y-58436561D01*
X99973884Y-58436561D02*
X99926265Y-58341323D01*
X99926265Y-58341323D02*
X99878646Y-58150847D01*
X99878646Y-58150847D02*
X99878646Y-58007990D01*
X99878646Y-58007990D02*
X99926265Y-57817514D01*
X99926265Y-57817514D02*
X99973884Y-57722276D01*
X99973884Y-57722276D02*
X100069122Y-57627038D01*
X100069122Y-57627038D02*
X100211979Y-57579419D01*
X100211979Y-57579419D02*
X100307217Y-57579419D01*
X100307217Y-57579419D02*
X100450074Y-57627038D01*
X100450074Y-57627038D02*
X100497693Y-57674657D01*
X100926265Y-58579419D02*
X100926265Y-57579419D01*
X101497693Y-58579419D02*
X101069122Y-58007990D01*
X101497693Y-57579419D02*
X100926265Y-58150847D01*
X104626265Y-56493704D02*
X105102455Y-56493704D01*
X104531027Y-56779419D02*
X104864360Y-55779419D01*
X104864360Y-55779419D02*
X105197693Y-56779419D01*
X105531027Y-56779419D02*
X105531027Y-55779419D01*
X105531027Y-55779419D02*
X106102455Y-56779419D01*
X106102455Y-56779419D02*
X106102455Y-55779419D01*
X106435789Y-55779419D02*
X107007217Y-55779419D01*
X106721503Y-56779419D02*
X106721503Y-55779419D01*
X85978333Y-61081704D02*
X86454523Y-61081704D01*
X85883095Y-61367419D02*
X86216428Y-60367419D01*
X86216428Y-60367419D02*
X86549761Y-61367419D01*
X86883095Y-60843609D02*
X87216428Y-60843609D01*
X87359285Y-61367419D02*
X86883095Y-61367419D01*
X86883095Y-61367419D02*
X86883095Y-60367419D01*
X86883095Y-60367419D02*
X87359285Y-60367419D01*
X88311666Y-61367419D02*
X87740238Y-61367419D01*
X88025952Y-61367419D02*
X88025952Y-60367419D01*
X88025952Y-60367419D02*
X87930714Y-60510276D01*
X87930714Y-60510276D02*
X87835476Y-60605514D01*
X87835476Y-60605514D02*
X87740238Y-60653133D01*
D10*
X121328819Y-58253238D02*
X120852628Y-58586571D01*
X121328819Y-58824666D02*
X120328819Y-58824666D01*
X120328819Y-58824666D02*
X120328819Y-58443714D01*
X120328819Y-58443714D02*
X120376438Y-58348476D01*
X120376438Y-58348476D02*
X120424057Y-58300857D01*
X120424057Y-58300857D02*
X120519295Y-58253238D01*
X120519295Y-58253238D02*
X120662152Y-58253238D01*
X120662152Y-58253238D02*
X120757390Y-58300857D01*
X120757390Y-58300857D02*
X120805009Y-58348476D01*
X120805009Y-58348476D02*
X120852628Y-58443714D01*
X120852628Y-58443714D02*
X120852628Y-58824666D01*
X120328819Y-57967523D02*
X121328819Y-57634190D01*
X121328819Y-57634190D02*
X120328819Y-57300857D01*
X120424057Y-57015142D02*
X120376438Y-56967523D01*
X120376438Y-56967523D02*
X120328819Y-56872285D01*
X120328819Y-56872285D02*
X120328819Y-56634190D01*
X120328819Y-56634190D02*
X120376438Y-56538952D01*
X120376438Y-56538952D02*
X120424057Y-56491333D01*
X120424057Y-56491333D02*
X120519295Y-56443714D01*
X120519295Y-56443714D02*
X120614533Y-56443714D01*
X120614533Y-56443714D02*
X120757390Y-56491333D01*
X120757390Y-56491333D02*
X121328819Y-57062761D01*
X121328819Y-57062761D02*
X121328819Y-56443714D01*
X157442819Y-108958333D02*
X158157104Y-108958333D01*
X158157104Y-108958333D02*
X158299961Y-109005952D01*
X158299961Y-109005952D02*
X158395200Y-109101190D01*
X158395200Y-109101190D02*
X158442819Y-109244047D01*
X158442819Y-109244047D02*
X158442819Y-109339285D01*
X158442819Y-107958333D02*
X158442819Y-108529761D01*
X158442819Y-108244047D02*
X157442819Y-108244047D01*
X157442819Y-108244047D02*
X157585676Y-108339285D01*
X157585676Y-108339285D02*
X157680914Y-108434523D01*
X157680914Y-108434523D02*
X157728533Y-108529761D01*
X158712819Y-85423333D02*
X159427104Y-85423333D01*
X159427104Y-85423333D02*
X159569961Y-85470952D01*
X159569961Y-85470952D02*
X159665200Y-85566190D01*
X159665200Y-85566190D02*
X159712819Y-85709047D01*
X159712819Y-85709047D02*
X159712819Y-85804285D01*
X158712819Y-85042380D02*
X158712819Y-84423333D01*
X158712819Y-84423333D02*
X159093771Y-84756666D01*
X159093771Y-84756666D02*
X159093771Y-84613809D01*
X159093771Y-84613809D02*
X159141390Y-84518571D01*
X159141390Y-84518571D02*
X159189009Y-84470952D01*
X159189009Y-84470952D02*
X159284247Y-84423333D01*
X159284247Y-84423333D02*
X159522342Y-84423333D01*
X159522342Y-84423333D02*
X159617580Y-84470952D01*
X159617580Y-84470952D02*
X159665200Y-84518571D01*
X159665200Y-84518571D02*
X159712819Y-84613809D01*
X159712819Y-84613809D02*
X159712819Y-84899523D01*
X159712819Y-84899523D02*
X159665200Y-84994761D01*
X159665200Y-84994761D02*
X159617580Y-85042380D01*
X119652580Y-112053666D02*
X119700200Y-112101285D01*
X119700200Y-112101285D02*
X119747819Y-112244142D01*
X119747819Y-112244142D02*
X119747819Y-112339380D01*
X119747819Y-112339380D02*
X119700200Y-112482237D01*
X119700200Y-112482237D02*
X119604961Y-112577475D01*
X119604961Y-112577475D02*
X119509723Y-112625094D01*
X119509723Y-112625094D02*
X119319247Y-112672713D01*
X119319247Y-112672713D02*
X119176390Y-112672713D01*
X119176390Y-112672713D02*
X118985914Y-112625094D01*
X118985914Y-112625094D02*
X118890676Y-112577475D01*
X118890676Y-112577475D02*
X118795438Y-112482237D01*
X118795438Y-112482237D02*
X118747819Y-112339380D01*
X118747819Y-112339380D02*
X118747819Y-112244142D01*
X118747819Y-112244142D02*
X118795438Y-112101285D01*
X118795438Y-112101285D02*
X118843057Y-112053666D01*
X119747819Y-111101285D02*
X119747819Y-111672713D01*
X119747819Y-111386999D02*
X118747819Y-111386999D01*
X118747819Y-111386999D02*
X118890676Y-111482237D01*
X118890676Y-111482237D02*
X118985914Y-111577475D01*
X118985914Y-111577475D02*
X119033533Y-111672713D01*
X142791819Y-58253238D02*
X142315628Y-58586571D01*
X142791819Y-58824666D02*
X141791819Y-58824666D01*
X141791819Y-58824666D02*
X141791819Y-58443714D01*
X141791819Y-58443714D02*
X141839438Y-58348476D01*
X141839438Y-58348476D02*
X141887057Y-58300857D01*
X141887057Y-58300857D02*
X141982295Y-58253238D01*
X141982295Y-58253238D02*
X142125152Y-58253238D01*
X142125152Y-58253238D02*
X142220390Y-58300857D01*
X142220390Y-58300857D02*
X142268009Y-58348476D01*
X142268009Y-58348476D02*
X142315628Y-58443714D01*
X142315628Y-58443714D02*
X142315628Y-58824666D01*
X141791819Y-57967523D02*
X142791819Y-57634190D01*
X142791819Y-57634190D02*
X141791819Y-57300857D01*
X142791819Y-56443714D02*
X142791819Y-57015142D01*
X142791819Y-56729428D02*
X141791819Y-56729428D01*
X141791819Y-56729428D02*
X141934676Y-56824666D01*
X141934676Y-56824666D02*
X142029914Y-56919904D01*
X142029914Y-56919904D02*
X142077533Y-57015142D01*
X105726580Y-111418666D02*
X105774200Y-111466285D01*
X105774200Y-111466285D02*
X105821819Y-111609142D01*
X105821819Y-111609142D02*
X105821819Y-111704380D01*
X105821819Y-111704380D02*
X105774200Y-111847237D01*
X105774200Y-111847237D02*
X105678961Y-111942475D01*
X105678961Y-111942475D02*
X105583723Y-111990094D01*
X105583723Y-111990094D02*
X105393247Y-112037713D01*
X105393247Y-112037713D02*
X105250390Y-112037713D01*
X105250390Y-112037713D02*
X105059914Y-111990094D01*
X105059914Y-111990094D02*
X104964676Y-111942475D01*
X104964676Y-111942475D02*
X104869438Y-111847237D01*
X104869438Y-111847237D02*
X104821819Y-111704380D01*
X104821819Y-111704380D02*
X104821819Y-111609142D01*
X104821819Y-111609142D02*
X104869438Y-111466285D01*
X104869438Y-111466285D02*
X104917057Y-111418666D01*
X104917057Y-111037713D02*
X104869438Y-110990094D01*
X104869438Y-110990094D02*
X104821819Y-110894856D01*
X104821819Y-110894856D02*
X104821819Y-110656761D01*
X104821819Y-110656761D02*
X104869438Y-110561523D01*
X104869438Y-110561523D02*
X104917057Y-110513904D01*
X104917057Y-110513904D02*
X105012295Y-110466285D01*
X105012295Y-110466285D02*
X105107533Y-110466285D01*
X105107533Y-110466285D02*
X105250390Y-110513904D01*
X105250390Y-110513904D02*
X105821819Y-111085332D01*
X105821819Y-111085332D02*
X105821819Y-110466285D01*
D11*
X86079419Y-112140904D02*
X86888942Y-112140904D01*
X86888942Y-112140904D02*
X86984180Y-112093285D01*
X86984180Y-112093285D02*
X87031800Y-112045666D01*
X87031800Y-112045666D02*
X87079419Y-111950428D01*
X87079419Y-111950428D02*
X87079419Y-111759952D01*
X87079419Y-111759952D02*
X87031800Y-111664714D01*
X87031800Y-111664714D02*
X86984180Y-111617095D01*
X86984180Y-111617095D02*
X86888942Y-111569476D01*
X86888942Y-111569476D02*
X86079419Y-111569476D01*
X86412752Y-110664714D02*
X87079419Y-110664714D01*
X86031800Y-110902809D02*
X86746085Y-111140904D01*
X86746085Y-111140904D02*
X86746085Y-110521857D01*
X144212667Y-105929800D02*
X144355524Y-105977419D01*
X144355524Y-105977419D02*
X144593619Y-105977419D01*
X144593619Y-105977419D02*
X144688857Y-105929800D01*
X144688857Y-105929800D02*
X144736476Y-105882180D01*
X144736476Y-105882180D02*
X144784095Y-105786942D01*
X144784095Y-105786942D02*
X144784095Y-105691704D01*
X144784095Y-105691704D02*
X144736476Y-105596466D01*
X144736476Y-105596466D02*
X144688857Y-105548847D01*
X144688857Y-105548847D02*
X144593619Y-105501228D01*
X144593619Y-105501228D02*
X144403143Y-105453609D01*
X144403143Y-105453609D02*
X144307905Y-105405990D01*
X144307905Y-105405990D02*
X144260286Y-105358371D01*
X144260286Y-105358371D02*
X144212667Y-105263133D01*
X144212667Y-105263133D02*
X144212667Y-105167895D01*
X144212667Y-105167895D02*
X144260286Y-105072657D01*
X144260286Y-105072657D02*
X144307905Y-105025038D01*
X144307905Y-105025038D02*
X144403143Y-104977419D01*
X144403143Y-104977419D02*
X144641238Y-104977419D01*
X144641238Y-104977419D02*
X144784095Y-105025038D01*
X145117429Y-104977419D02*
X145355524Y-105977419D01*
X145355524Y-105977419D02*
X145546000Y-105263133D01*
X145546000Y-105263133D02*
X145736476Y-105977419D01*
X145736476Y-105977419D02*
X145974572Y-104977419D01*
X146879333Y-105977419D02*
X146307905Y-105977419D01*
X146593619Y-105977419D02*
X146593619Y-104977419D01*
X146593619Y-104977419D02*
X146498381Y-105120276D01*
X146498381Y-105120276D02*
X146403143Y-105215514D01*
X146403143Y-105215514D02*
X146307905Y-105263133D01*
D10*
X80900319Y-92900404D02*
X81709842Y-92900404D01*
X81709842Y-92900404D02*
X81805080Y-92852785D01*
X81805080Y-92852785D02*
X81852700Y-92805166D01*
X81852700Y-92805166D02*
X81900319Y-92709928D01*
X81900319Y-92709928D02*
X81900319Y-92519452D01*
X81900319Y-92519452D02*
X81852700Y-92424214D01*
X81852700Y-92424214D02*
X81805080Y-92376595D01*
X81805080Y-92376595D02*
X81709842Y-92328976D01*
X81709842Y-92328976D02*
X80900319Y-92328976D01*
X81900319Y-91328976D02*
X81900319Y-91900404D01*
X81900319Y-91614690D02*
X80900319Y-91614690D01*
X80900319Y-91614690D02*
X81043176Y-91709928D01*
X81043176Y-91709928D02*
X81138414Y-91805166D01*
X81138414Y-91805166D02*
X81186033Y-91900404D01*
D12*
%TO.C,U3*%
X128270000Y-108585000D02*
X128270000Y-110490000D01*
X128270000Y-114427000D02*
X128270000Y-112522000D01*
X128270000Y-114427000D02*
X138430000Y-114427000D01*
X138430000Y-108585000D02*
X128270000Y-108585000D01*
X138430000Y-108585000D02*
X138430000Y-114427000D01*
X128270000Y-110490000D02*
G75*
G02*
X128270000Y-112522000I0J-1016000D01*
G01*
%TO.C,U2*%
D11*
X97270000Y-54607000D02*
X108270000Y-54607000D01*
X108270000Y-65607000D01*
X97270000Y-65607000D01*
X97270000Y-54607000D01*
D13*
%TO.C,RV2*%
X123503000Y-50588000D02*
X133544000Y-50588000D01*
X123503000Y-54524000D02*
X123503000Y-50588000D01*
X123503000Y-62828000D02*
X123503000Y-58891000D01*
X123503000Y-62828000D02*
X124824000Y-62828000D01*
X127274000Y-62828000D02*
X127654000Y-62828000D01*
X129395000Y-62828000D02*
X130154000Y-62828000D01*
X131894000Y-62828000D02*
X133544000Y-62828000D01*
X133544000Y-54524000D02*
X133544000Y-50588000D01*
X133544000Y-62828000D02*
X133544000Y-58891000D01*
D14*
%TO.C,J1*%
X149408000Y-105530000D02*
X156908000Y-105530000D01*
X149408000Y-115530000D02*
X149408000Y-105530000D01*
X156908000Y-105530000D02*
X156908000Y-115530000D01*
X156908000Y-115530000D02*
X149408000Y-115530000D01*
D15*
X153008000Y-104930000D02*
G75*
G02*
X152808000Y-104930000I-100000J0D01*
G01*
X152808000Y-104930000D02*
G75*
G02*
X153008000Y-104930000I100000J0D01*
G01*
D14*
%TO.C,J3*%
X150678000Y-81995000D02*
X158178000Y-81995000D01*
X150678000Y-91995000D02*
X150678000Y-81995000D01*
X158178000Y-81995000D02*
X158178000Y-91995000D01*
X158178000Y-91995000D02*
X150678000Y-91995000D01*
D15*
X154278000Y-81395000D02*
G75*
G02*
X154078000Y-81395000I-100000J0D01*
G01*
X154078000Y-81395000D02*
G75*
G02*
X154278000Y-81395000I100000J0D01*
G01*
D13*
%TO.C,C1*%
X120423000Y-109267000D02*
X120760000Y-109267000D01*
X120423000Y-114507000D02*
X120423000Y-109267000D01*
X120760000Y-114507000D02*
X120423000Y-114507000D01*
X122826000Y-109267000D02*
X123163000Y-109267000D01*
X123163000Y-109267000D02*
X123163000Y-114507000D01*
X123163000Y-114507000D02*
X122826000Y-114507000D01*
%TO.C,RV1*%
X144966000Y-50588000D02*
X155007000Y-50588000D01*
X144966000Y-54524000D02*
X144966000Y-50588000D01*
X144966000Y-62828000D02*
X144966000Y-58891000D01*
X144966000Y-62828000D02*
X146287000Y-62828000D01*
X148737000Y-62828000D02*
X149117000Y-62828000D01*
X150858000Y-62828000D02*
X151617000Y-62828000D01*
X153357000Y-62828000D02*
X155007000Y-62828000D01*
X155007000Y-54524000D02*
X155007000Y-50588000D01*
X155007000Y-62828000D02*
X155007000Y-58891000D01*
%TO.C,C2*%
X114737000Y-111252000D02*
G75*
G02*
X106497000Y-111252000I-4120000J0D01*
G01*
X106497000Y-111252000D02*
G75*
G02*
X114737000Y-111252000I4120000J0D01*
G01*
D14*
%TO.C,U1*%
X82643000Y-77106000D02*
X89383000Y-77106000D01*
X82643000Y-95106000D02*
X82643000Y-77106000D01*
X89383000Y-77106000D02*
X89383000Y-73136000D01*
X89383000Y-95106000D02*
X82643000Y-95106000D01*
X89383000Y-99076000D02*
X89383000Y-95106000D01*
X136643000Y-72136000D02*
X90383000Y-72136000D01*
X136643000Y-100076000D02*
X90383000Y-100076000D01*
X137643000Y-82056000D02*
X137643000Y-73136000D01*
X137643000Y-90156000D02*
X138643000Y-90156000D01*
X137643000Y-99076000D02*
X137643000Y-90156000D01*
X138643000Y-82056000D02*
X137643000Y-82056000D01*
X138643000Y-90156000D02*
X138643000Y-82056000D01*
X89383000Y-73136000D02*
G75*
G02*
X90383000Y-72136000I1000000J0D01*
G01*
X90383000Y-100076000D02*
G75*
G02*
X89383000Y-99076000I-1J999999D01*
G01*
X136643000Y-72136000D02*
G75*
G02*
X137643000Y-73136000I0J-1000000D01*
G01*
X137643000Y-99076000D02*
G75*
G02*
X136643000Y-100076000I-999999J-1D01*
G01*
D15*
X90778000Y-100606000D02*
G75*
G02*
X90578000Y-100606000I-100000J0D01*
G01*
X90578000Y-100606000D02*
G75*
G02*
X90778000Y-100606000I100000J0D01*
G01*
%TD*%
M02*
