%TF.GenerationSoftware,KiCad,Pcbnew,9.0.7*%
%TF.CreationDate,2026-07-15T16:01:31+01:00*%
%TF.ProjectId,radioi,72616469-6f69-42e6-9b69-6361645f7063,rev?*%
%TF.SameCoordinates,Original*%
%TF.FileFunction,Soldermask,Top*%
%TF.FilePolarity,Negative*%
%FSLAX46Y46*%
G04 Gerber Fmt 4.6, Leading zero omitted, Abs format (unit mm)*
G04 Created by KiCad (PCBNEW 9.0.7) date 2026-07-15 16:01:31*
%MOMM*%
%LPD*%
G01*
G04 APERTURE LIST*
G04 Aperture macros list*
%AMRoundRect*
0 Rectangle with rounded corners*
0 $1 Rounding radius*
0 $2 $3 $4 $5 $6 $7 $8 $9 X,Y pos of 4 corners*
0 Add a 4 corners polygon primitive as box body*
4,1,4,$2,$3,$4,$5,$6,$7,$8,$9,$2,$3,0*
0 Add four circle primitives for the rounded corners*
1,1,$1+$1,$2,$3*
1,1,$1+$1,$4,$5*
1,1,$1+$1,$6,$7*
1,1,$1+$1,$8,$9*
0 Add four rect primitives between the rounded corners*
20,1,$1+$1,$2,$3,$4,$5,0*
20,1,$1+$1,$4,$5,$6,$7,0*
20,1,$1+$1,$6,$7,$8,$9,0*
20,1,$1+$1,$8,$9,$2,$3,0*%
G04 Aperture macros list end*
%ADD10O,1.524800X2.845600*%
%ADD11RoundRect,0.187500X-0.912500X-0.437500X0.912500X-0.437500X0.912500X0.437500X-0.912500X0.437500X0*%
%ADD12RoundRect,0.750000X-1.750000X-2.750000X1.750000X-2.750000X1.750000X2.750000X-1.750000X2.750000X0*%
%ADD13R,1.800000X1.800000*%
%ADD14C,1.800000*%
%ADD15RoundRect,0.750000X0.750000X-1.250000X0.750000X1.250000X-0.750000X1.250000X-0.750000X-1.250000X0*%
%ADD16RoundRect,0.102000X-1.050000X1.050000X-1.050000X-1.050000X1.050000X-1.050000X1.050000X1.050000X0*%
%ADD17C,2.304000*%
%ADD18C,1.600000*%
%ADD19R,1.600000X1.600000*%
%ADD20RoundRect,0.190500X-0.762000X-0.444500X0.762000X-0.444500X0.762000X0.444500X-0.762000X0.444500X0*%
%ADD21RoundRect,0.102000X0.704000X-0.704000X0.704000X0.704000X-0.704000X0.704000X-0.704000X-0.704000X0*%
%ADD22C,1.612000*%
G04 APERTURE END LIST*
D10*
%TO.C,U3*%
X129540000Y-115316000D03*
X132080000Y-115316000D03*
X134620000Y-115316000D03*
X137160000Y-115316000D03*
X137160000Y-107696000D03*
X134620000Y-107696000D03*
X132080000Y-107696000D03*
X129540000Y-107696000D03*
%TD*%
D11*
%TO.C,U2*%
X97270000Y-64207000D03*
X97320000Y-62157000D03*
X97270000Y-60107000D03*
X97220000Y-58157000D03*
X97270000Y-56007000D03*
X108270000Y-56157000D03*
X108270000Y-58157000D03*
X108270000Y-60157000D03*
X108270000Y-62157000D03*
X108270000Y-64157000D03*
%TD*%
D12*
%TO.C,AE1*%
X86945000Y-56510000D03*
%TD*%
D13*
%TO.C,RV2*%
X126024000Y-63708000D03*
D14*
X128524000Y-63708000D03*
X131024000Y-63708000D03*
D15*
X124124000Y-56708000D03*
X132924000Y-56708000D03*
%TD*%
D16*
%TO.C,J1*%
X152908000Y-108030000D03*
D17*
X152908000Y-113030000D03*
%TD*%
D16*
%TO.C,J3*%
X154178000Y-84495000D03*
D17*
X154178000Y-89495000D03*
%TD*%
D18*
%TO.C,C1*%
X121793000Y-114387000D03*
X121793000Y-109387000D03*
%TD*%
D13*
%TO.C,RV1*%
X147487000Y-63708000D03*
D14*
X149987000Y-63708000D03*
X152487000Y-63708000D03*
D15*
X145587000Y-56708000D03*
X154387000Y-56708000D03*
%TD*%
D19*
%TO.C,C2*%
X110617000Y-113002000D03*
D18*
X110617000Y-109502000D03*
%TD*%
D19*
%TO.C,U4*%
X94742000Y-118999000D03*
D18*
X94742000Y-116459000D03*
X94742000Y-113919000D03*
X94742000Y-111379000D03*
X94742000Y-108839000D03*
X94742000Y-106299000D03*
X94742000Y-103759000D03*
%TD*%
D20*
%TO.C,SW1*%
X142446000Y-101620000D03*
X146646000Y-101670000D03*
X150896000Y-101670000D03*
X154846000Y-101720000D03*
%TD*%
D21*
%TO.C,U1*%
X90678000Y-98806000D03*
D22*
X93218000Y-98806000D03*
X95758000Y-98806000D03*
X98298000Y-98806000D03*
X100838000Y-98806000D03*
X103378000Y-98806000D03*
X105918000Y-98806000D03*
X108458000Y-98806000D03*
X110998000Y-98806000D03*
X113538000Y-98806000D03*
X116078000Y-98806000D03*
X118618000Y-98806000D03*
X121158000Y-98806000D03*
X123698000Y-98806000D03*
X126238000Y-98806000D03*
X128778000Y-98806000D03*
X131318000Y-98806000D03*
X133858000Y-98806000D03*
X136398000Y-98806000D03*
X90678000Y-73406000D03*
X93218000Y-73406000D03*
X95758000Y-73406000D03*
X98298000Y-73406000D03*
X100838000Y-73406000D03*
X103378000Y-73406000D03*
X105918000Y-73406000D03*
X108458000Y-73406000D03*
X110998000Y-73406000D03*
X113538000Y-73406000D03*
X116078000Y-73406000D03*
X118618000Y-73406000D03*
X121158000Y-73406000D03*
X123698000Y-73406000D03*
X126238000Y-73406000D03*
X128778000Y-73406000D03*
X131318000Y-73406000D03*
X133858000Y-73406000D03*
X136398000Y-73406000D03*
%TD*%
M02*
