%TF.GenerationSoftware,KiCad,Pcbnew,9.0.7*%
%TF.CreationDate,2026-07-15T16:01:31+01:00*%
%TF.ProjectId,radioi,72616469-6f69-42e6-9b69-6361645f7063,rev?*%
%TF.SameCoordinates,Original*%
%TF.FileFunction,Copper,L2,Bot*%
%TF.FilePolarity,Positive*%
%FSLAX46Y46*%
G04 Gerber Fmt 4.6, Leading zero omitted, Abs format (unit mm)*
G04 Created by KiCad (PCBNEW 9.0.7) date 2026-07-15 16:01:31*
%MOMM*%
%LPD*%
G01*
G04 APERTURE LIST*
G04 Aperture macros list*
%AMRoundRect*
0 Rectangle with rounded corners*
0 $1 Rounding radius*
0 $2 $3 $4 $5 $6 $7 $8 $9 X,Y pos of 4 corners*
0 Add a 4 corners polygon primitive as box body*
4,1,4,$2,$3,$4,$5,$6,$7,$8,$9,$2,$3,0*
0 Add four circle primitives for the rounded corners*
1,1,$1+$1,$2,$3*
1,1,$1+$1,$4,$5*
1,1,$1+$1,$6,$7*
1,1,$1+$1,$8,$9*
0 Add four rect primitives between the rounded corners*
20,1,$1+$1,$2,$3,$4,$5,0*
20,1,$1+$1,$4,$5,$6,$7,0*
20,1,$1+$1,$6,$7,$8,$9,0*
20,1,$1+$1,$8,$9,$2,$3,0*%
G04 Aperture macros list end*
%TA.AperFunction,ComponentPad*%
%ADD10O,1.320800X2.641600*%
%TD*%
%TA.AperFunction,ComponentPad*%
%ADD11R,1.800000X1.800000*%
%TD*%
%TA.AperFunction,ComponentPad*%
%ADD12C,1.800000*%
%TD*%
%TA.AperFunction,ComponentPad*%
%ADD13RoundRect,0.750000X0.750000X-1.250000X0.750000X1.250000X-0.750000X1.250000X-0.750000X-1.250000X0*%
%TD*%
%TA.AperFunction,ComponentPad*%
%ADD14R,2.100000X2.100000*%
%TD*%
%TA.AperFunction,ComponentPad*%
%ADD15C,2.100000*%
%TD*%
%TA.AperFunction,ComponentPad*%
%ADD16C,1.600000*%
%TD*%
%TA.AperFunction,ComponentPad*%
%ADD17R,1.600000X1.600000*%
%TD*%
%TA.AperFunction,ComponentPad*%
%ADD18RoundRect,0.190500X-0.762000X-0.444500X0.762000X-0.444500X0.762000X0.444500X-0.762000X0.444500X0*%
%TD*%
%TA.AperFunction,ComponentPad*%
%ADD19R,1.408000X1.408000*%
%TD*%
%TA.AperFunction,ComponentPad*%
%ADD20C,1.408000*%
%TD*%
%TA.AperFunction,ViaPad*%
%ADD21C,0.600000*%
%TD*%
%TA.AperFunction,Conductor*%
%ADD22C,0.200000*%
%TD*%
%TA.AperFunction,Conductor*%
%ADD23C,0.400000*%
%TD*%
G04 APERTURE END LIST*
D10*
%TO.P,U3,1,VP*%
%TO.N,Net-(U1-EXT_5V)*%
X129540000Y-115316000D03*
%TO.P,U3,2,+*%
%TO.N,Net-(U1-IO4)*%
X132080000Y-115316000D03*
%TO.P,U3,3,GND*%
%TO.N,Net-(U1-GND_J3_1)*%
X134620000Y-115316000D03*
%TO.P,U3,4,V*%
%TO.N,unconnected-(U3-V-Pad4)*%
X137160000Y-115316000D03*
%TO.P,U3,5*%
%TO.N,Net-(J1-Pad1)*%
X137160000Y-107696000D03*
%TO.P,U3,6,GND*%
%TO.N,Net-(U1-GND_J3_1)*%
X134620000Y-107696000D03*
%TO.P,U3,7,NC*%
%TO.N,unconnected-(U3-NC-Pad7)*%
X132080000Y-107696000D03*
%TO.P,U3,8*%
%TO.N,Net-(J1-Pad2)*%
X129540000Y-107696000D03*
%TD*%
D11*
%TO.P,RV2,1,1*%
%TO.N,Net-(U1-EXT_5V)*%
X126024000Y-63708000D03*
D12*
%TO.P,RV2,2,2*%
%TO.N,Net-(U1-IO5)*%
X128524000Y-63708000D03*
%TO.P,RV2,3,3*%
%TO.N,Net-(U1-GND_J3_1)*%
X131024000Y-63708000D03*
D13*
%TO.P,RV2,MP*%
%TO.N,N/C*%
X124124000Y-56708000D03*
X132924000Y-56708000D03*
%TD*%
D14*
%TO.P,J1,1,1*%
%TO.N,Net-(J1-Pad1)*%
X152908000Y-108030000D03*
D15*
%TO.P,J1,2,2*%
%TO.N,Net-(J1-Pad2)*%
X152908000Y-113030000D03*
%TD*%
D14*
%TO.P,J3,1,1*%
%TO.N,Net-(U1-GND_J3_1)*%
X154178000Y-84495000D03*
D15*
%TO.P,J3,2,2*%
%TO.N,Net-(U1-EXT_5V)*%
X154178000Y-89495000D03*
%TD*%
D16*
%TO.P,C1,1*%
%TO.N,Net-(U1-EXT_5V)*%
X121793000Y-114387000D03*
%TO.P,C1,2*%
%TO.N,Net-(U1-GND_J3_1)*%
X121793000Y-109387000D03*
%TD*%
D11*
%TO.P,RV1,1,1*%
%TO.N,Net-(U2-LO)*%
X147487000Y-63708000D03*
D12*
%TO.P,RV1,2,2*%
%TO.N,Net-(U1-IO4)*%
X149987000Y-63708000D03*
%TO.P,RV1,3,3*%
%TO.N,Net-(U1-GND_J3_1)*%
X152487000Y-63708000D03*
D13*
%TO.P,RV1,MP*%
%TO.N,N/C*%
X145587000Y-56708000D03*
X154387000Y-56708000D03*
%TD*%
D17*
%TO.P,C2,1*%
%TO.N,Net-(U1-EXT_5V)*%
X110617000Y-113002000D03*
D16*
%TO.P,C2,2*%
%TO.N,Net-(U1-GND_J3_1)*%
X110617000Y-109502000D03*
%TD*%
D17*
%TO.P,U4,8,VDD*%
%TO.N,Net-(U1-3V3)*%
X94742000Y-118999000D03*
D16*
%TO.P,U4,9,OUTP*%
%TO.N,unconnected-(U4-OUTP-Pad9)*%
X94742000Y-116459000D03*
%TO.P,U4,10,OUTN*%
%TO.N,unconnected-(U4-OUTN-Pad10)*%
X94742000Y-113919000D03*
%TO.P,U4,11,GND*%
%TO.N,Net-(U1-GND_J3_1)*%
X94742000Y-111379000D03*
%TO.P,U4,12,NC*%
%TO.N,unconnected-(U4-NC-Pad12)*%
X94742000Y-108839000D03*
%TO.P,U4,13,NC*%
%TO.N,unconnected-(U4-NC-Pad13)*%
X94742000Y-106299000D03*
%TO.P,U4,14,LRCLK*%
%TO.N,Net-(U1-IO26)*%
X94742000Y-103759000D03*
%TD*%
D18*
%TO.P,SW1,1,1*%
%TO.N,Net-(U1-IO15)*%
X142446000Y-101620000D03*
%TO.P,SW1,2,2*%
%TO.N,Net-(U1-IO0)*%
X146646000Y-101670000D03*
%TO.P,SW1,3,3*%
%TO.N,Net-(U1-3V3)*%
X150896000Y-101670000D03*
%TO.P,SW1,4,4*%
%TO.N,Net-(U1-IO2)*%
X154846000Y-101720000D03*
%TD*%
D19*
%TO.P,U1,J2_1,3V3*%
%TO.N,Net-(U1-3V3)*%
X90678000Y-98806000D03*
D20*
%TO.P,U1,J2_2,EN*%
%TO.N,unconnected-(U1-EN-PadJ2_2)*%
X93218000Y-98806000D03*
%TO.P,U1,J2_3,SENSOR_VP*%
%TO.N,unconnected-(U1-SENSOR_VP-PadJ2_3)*%
X95758000Y-98806000D03*
%TO.P,U1,J2_4,SENSOR_VN*%
%TO.N,unconnected-(U1-SENSOR_VN-PadJ2_4)*%
X98298000Y-98806000D03*
%TO.P,U1,J2_5,IO34*%
%TO.N,unconnected-(U1-IO34-PadJ2_5)*%
X100838000Y-98806000D03*
%TO.P,U1,J2_6,IO35*%
%TO.N,unconnected-(U1-IO35-PadJ2_6)*%
X103378000Y-98806000D03*
%TO.P,U1,J2_7,IO32*%
%TO.N,unconnected-(U1-IO32-PadJ2_7)*%
X105918000Y-98806000D03*
%TO.P,U1,J2_8,IO33*%
%TO.N,unconnected-(U1-IO33-PadJ2_8)*%
X108458000Y-98806000D03*
%TO.P,U1,J2_9,IO25*%
%TO.N,Net-(U1-IO25)*%
X110998000Y-98806000D03*
%TO.P,U1,J2_10,IO26*%
%TO.N,Net-(U1-IO26)*%
X113538000Y-98806000D03*
%TO.P,U1,J2_11,IO27*%
%TO.N,Net-(U1-IO27)*%
X116078000Y-98806000D03*
%TO.P,U1,J2_12,IO14*%
%TO.N,unconnected-(U1-IO14-PadJ2_12)*%
X118618000Y-98806000D03*
%TO.P,U1,J2_13,IO12*%
%TO.N,unconnected-(U1-IO12-PadJ2_13)*%
X121158000Y-98806000D03*
%TO.P,U1,J2_14,GND_J2_14*%
%TO.N,unconnected-(U1-GND_J2_14-PadJ2_14)*%
X123698000Y-98806000D03*
%TO.P,U1,J2_15,IO13*%
%TO.N,unconnected-(U1-IO13-PadJ2_15)*%
X126238000Y-98806000D03*
%TO.P,U1,J2_16,SD2*%
%TO.N,unconnected-(U1-SD2-PadJ2_16)*%
X128778000Y-98806000D03*
%TO.P,U1,J2_17,SD3*%
%TO.N,unconnected-(U1-SD3-PadJ2_17)*%
X131318000Y-98806000D03*
%TO.P,U1,J2_18,CMD*%
%TO.N,unconnected-(U1-CMD-PadJ2_18)*%
X133858000Y-98806000D03*
%TO.P,U1,J2_19,EXT_5V*%
%TO.N,Net-(U1-EXT_5V)*%
X136398000Y-98806000D03*
%TO.P,U1,J3_1,GND_J3_1*%
%TO.N,Net-(U1-GND_J3_1)*%
X90678000Y-73406000D03*
%TO.P,U1,J3_2,IO23*%
%TO.N,unconnected-(U1-IO23-PadJ3_2)*%
X93218000Y-73406000D03*
%TO.P,U1,J3_3,IO22*%
%TO.N,Net-(U1-IO22)*%
X95758000Y-73406000D03*
%TO.P,U1,J3_4,TXD0*%
%TO.N,unconnected-(U1-TXD0-PadJ3_4)*%
X98298000Y-73406000D03*
%TO.P,U1,J3_5,RXD0*%
%TO.N,unconnected-(U1-RXD0-PadJ3_5)*%
X100838000Y-73406000D03*
%TO.P,U1,J3_6,IO21*%
%TO.N,Net-(U1-IO21)*%
X103378000Y-73406000D03*
%TO.P,U1,J3_7,GND_J3_7*%
%TO.N,unconnected-(U1-GND_J3_7-PadJ3_7)*%
X105918000Y-73406000D03*
%TO.P,U1,J3_8,IO19*%
%TO.N,unconnected-(U1-IO19-PadJ3_8)*%
X108458000Y-73406000D03*
%TO.P,U1,J3_9,IO18*%
%TO.N,unconnected-(U1-IO18-PadJ3_9)*%
X110998000Y-73406000D03*
%TO.P,U1,J3_10,IO5*%
%TO.N,Net-(U1-IO5)*%
X113538000Y-73406000D03*
%TO.P,U1,J3_11,IO17*%
%TO.N,unconnected-(U1-IO17-PadJ3_11)*%
X116078000Y-73406000D03*
%TO.P,U1,J3_12,IO16*%
%TO.N,unconnected-(U1-IO16-PadJ3_12)*%
X118618000Y-73406000D03*
%TO.P,U1,J3_13,IO4*%
%TO.N,Net-(U1-IO4)*%
X121158000Y-73406000D03*
%TO.P,U1,J3_14,IO0*%
%TO.N,Net-(U1-IO0)*%
X123698000Y-73406000D03*
%TO.P,U1,J3_15,IO2*%
%TO.N,Net-(U1-IO2)*%
X126238000Y-73406000D03*
%TO.P,U1,J3_16,IO15*%
%TO.N,Net-(U1-IO15)*%
X128778000Y-73406000D03*
%TO.P,U1,J3_17,SD1*%
%TO.N,unconnected-(U1-SD1-PadJ3_17)*%
X131318000Y-73406000D03*
%TO.P,U1,J3_18,SD0*%
%TO.N,unconnected-(U1-SD0-PadJ3_18)*%
X133858000Y-73406000D03*
%TO.P,U1,J3_19,CLK*%
%TO.N,unconnected-(U1-CLK-PadJ3_19)*%
X136398000Y-73406000D03*
%TD*%
D21*
%TO.N,Net-(U2-LO)*%
X111633000Y-63119000D03*
%TO.N,Net-(U1-IO5)*%
X116713000Y-68453000D03*
%TO.N,Net-(U1-IO2)*%
X143383000Y-93091000D03*
X153924000Y-94869000D03*
X142621000Y-72263000D03*
X145161000Y-93980000D03*
%TO.N,Net-(U1-IO0)*%
X141196735Y-95476735D03*
X129159000Y-77851000D03*
%TO.N,Net-(U1-IO15)*%
X139700000Y-96901000D03*
X128143000Y-78867000D03*
%TO.N,Net-(U1-3V3)*%
X141986000Y-94488000D03*
X129794000Y-82042000D03*
%TO.N,Net-(U1-IO21)*%
X94107000Y-65278000D03*
%TO.N,Net-(U1-GND_J3_1)*%
X98552000Y-69469000D03*
X94742000Y-69469000D03*
%TO.N,Net-(U1-EXT_5V)*%
X123825000Y-66421000D03*
%TD*%
D22*
%TO.N,Net-(U1-IO4)*%
X136744000Y-76951000D02*
X124703000Y-76951000D01*
X124703000Y-112499025D02*
X124703000Y-76951000D01*
X132080000Y-115316000D02*
X130458200Y-116937800D01*
X149987000Y-63708000D02*
X136744000Y-76951000D01*
X124703000Y-76951000D02*
X121158000Y-73406000D01*
X130458200Y-116937800D02*
X129141775Y-116937800D01*
X129141775Y-116937800D02*
X124703000Y-112499025D01*
%TO.N,Net-(U2-LO)*%
X147487000Y-63708000D02*
X142141000Y-69054000D01*
X115790000Y-69054000D02*
X113411000Y-66675000D01*
X142141000Y-69054000D02*
X115790000Y-69054000D01*
X113411000Y-64897000D02*
X111633000Y-63119000D01*
X113411000Y-66675000D02*
X113411000Y-64897000D01*
%TO.N,Net-(U1-IO5)*%
X128524000Y-63708000D02*
X123779000Y-68453000D01*
X123779000Y-68453000D02*
X116713000Y-68453000D01*
%TO.N,Net-(U1-IO2)*%
X143383000Y-73025000D02*
X142621000Y-72263000D01*
X143383000Y-93091000D02*
X143383000Y-73025000D01*
X146050000Y-94869000D02*
X145161000Y-93980000D01*
X153924000Y-94869000D02*
X146050000Y-94869000D01*
%TO.N,Net-(U1-IO0)*%
X141196735Y-95476735D02*
X129159000Y-83439000D01*
X129159000Y-83439000D02*
X129159000Y-82677000D01*
X129159000Y-82677000D02*
X129159000Y-77851000D01*
%TO.N,Net-(U1-IO15)*%
X139700000Y-96901000D02*
X128143000Y-85344000D01*
X128143000Y-85344000D02*
X128143000Y-78867000D01*
%TO.N,Net-(U1-3V3)*%
X90678000Y-114935000D02*
X90678000Y-98806000D01*
X94742000Y-118999000D02*
X90678000Y-114935000D01*
X141986000Y-94488000D02*
X129794000Y-82296000D01*
X129794000Y-82296000D02*
X129794000Y-82042000D01*
%TO.N,Net-(U1-IO21)*%
X94107000Y-65278000D02*
X95250000Y-65278000D01*
X95250000Y-65278000D02*
X103378000Y-73406000D01*
%TO.N,Net-(U1-GND_J3_1)*%
X152527000Y-63748000D02*
X152487000Y-63708000D01*
X152527000Y-83820000D02*
X152527000Y-84995000D01*
X94742000Y-111379000D02*
X108740000Y-111379000D01*
X108740000Y-111379000D02*
X110617000Y-109502000D01*
D23*
X94742000Y-69469000D02*
X98552000Y-69469000D01*
D22*
X110617000Y-109502000D02*
X121678000Y-109502000D01*
D23*
X91683000Y-108320000D02*
X94742000Y-111379000D01*
X91683000Y-108088000D02*
X91683000Y-108320000D01*
X91948000Y-107823000D02*
X91683000Y-108088000D01*
X152527000Y-83820000D02*
X152527000Y-63748000D01*
D22*
X152527000Y-84995000D02*
X134620000Y-102902000D01*
X134620000Y-115316000D02*
X134620000Y-107696000D01*
X152527000Y-84995000D02*
X153678000Y-84995000D01*
X153678000Y-84995000D02*
X154178000Y-84495000D01*
D23*
X91948000Y-74676000D02*
X91948000Y-107823000D01*
X121678000Y-109502000D02*
X121793000Y-109387000D01*
X90678000Y-73406000D02*
X91948000Y-74676000D01*
D22*
X134620000Y-102902000D02*
X134620000Y-107696000D01*
%TO.N,Net-(U1-EXT_5V)*%
X129540000Y-115316000D02*
X130501400Y-114354600D01*
X126024000Y-64222000D02*
X126024000Y-63708000D01*
X130501400Y-114354600D02*
X130501400Y-104702600D01*
X123825000Y-66421000D02*
X126024000Y-64222000D01*
X130501400Y-104702600D02*
X136398000Y-98806000D01*
%TD*%
M02*
